<svg version="1.1" xmlns="http://www.w3.org/2000/svg" xmlns:xlink="http://www.w3.org/1999/xlink" x="0px" y="0px"
	 viewBox="0 0 500 500" enable-background="new 0 0 500 500" xml:space="preserve">
<g id="Background">
	<rect fill="#FFFFFF" width="500" height="500"/>
</g>
<g id="Objects">
	<g>
		<g>
			<path fill="#BDD0FB" d="M311.9,15.4c-1.3-1.5-3.8-0.3-3.4,1.6c4,19,13.1,69,4.2,102.8c-14.4,54.9-5.3,127.1,32.8,146.9
				C345.6,266.7,452,183.2,311.9,15.4z"/>
			<path opacity="0.43" fill="#FFFFFF" d="M321.1,40.7c0.2,0.6,0.4,1,0.6,1.6l0.5,1.5l1,3.1c0.7,2,1.3,4.1,1.9,6.1
				c1.2,4.1,2.4,8.2,3.6,12.4c2.3,8.3,4.4,16.6,6.3,24.9c2,8.4,3.7,16.8,5.2,25.2c1.5,8.4,3,16.9,4.1,25.4c2.3,17,3.7,34.2,3.9,51.4
				c0,8.6-0.2,17.2-0.9,25.8c-0.8,8.6-1.9,17.1-3.7,25.5c0,0.2-0.2,0.3-0.4,0.3c-0.2,0-0.3-0.2-0.3-0.4l0,0c1.4-8.4,2.4-16.9,3-25.5
				c0.6-8.5,0.7-17.1,0.5-25.6c-0.1-8.5-0.6-17.1-1.3-25.6c-0.7-8.5-1.7-17-2.8-25.5c-2.2-17-5.4-33.8-9-50.5
				c-1.8-8.4-3.8-16.7-5.9-25c-1.1-4.1-2.2-8.3-3.3-12.4l-1.8-6.2l-0.9-3.1l-0.5-1.5c-0.2-0.5-0.3-1-0.5-1.5l0-0.1
				c-0.1-0.2,0-0.4,0.2-0.4C320.8,40.5,321,40.5,321.1,40.7z"/>
		</g>
		<g>
			<path fill="#91B3FA" d="M221,10c-1.6-1.1-3.6,0.7-2.6,2.4c8.9,16.3,30.8,59.8,31.9,93.1c1.8,54.3,29.8,118,70.2,125.8
				C320.4,231.3,395.3,125.7,221,10z"/>
			<path opacity="0.43" fill="#FFFFFF" d="M236.3,30.7c0.4,0.5,0.6,0.9,1,1.3l0.9,1.3l1.8,2.5c1.2,1.7,2.3,3.4,3.4,5.1
				c2.3,3.4,4.5,6.9,6.7,10.3c4.4,7,8.5,14,12.6,21.1c4.1,7.1,8,14.4,11.7,21.7c3.7,7.3,7.3,14.7,10.7,22.2
				c6.8,15,12.7,30.3,17.6,46c2.3,7.9,4.5,15.8,6.2,23.9c1.6,8.1,2.9,16.2,3.6,24.4c0,0.2-0.1,0.3-0.3,0.4c-0.2,0-0.3-0.1-0.4-0.3
				l0,0c-1-8.1-2.4-16.2-4.2-24.2c-1.8-8-4.1-15.8-6.5-23.6c-2.5-7.8-5.2-15.5-8.2-23.1c-3-7.6-6.2-15.1-9.5-22.6
				c-6.7-14.9-14.2-29.5-22-43.9c-4-7.2-8-14.3-12.3-21.3c-2.1-3.5-4.2-7-6.4-10.5l-3.3-5.2l-1.7-2.6l-0.9-1.3
				c-0.3-0.4-0.6-0.9-0.9-1.2l0-0.1c-0.1-0.1-0.1-0.3,0.1-0.5C236,30.6,236.2,30.6,236.3,30.7z"/>
		</g>
	</g>
	<g>
		<path fill="#91B3FA" d="M67.5,406.5l19.5,2.6h344.6c-7.3-24.2-52.5-71.9-8.3-109.7c99.5-85.2,16.7-227.4-55.6-205.3
			c-41,12.5-66.7,90.3-172.9,20C84.2,41,39.1,130.7,49.2,171.1c10.1,40.4,21.4,87.4-6.3,124S41,384.9,67.5,406.5z"/>
		<g>
			<g>
				<path fill="#ED9A9B" d="M132.7,244c0,0,14.8,0.2,31.7-12c16.9-12.2-13.6-9.5-30.1-2.5L132.7,244z"/>
				<path fill="#ED9A9B" d="M136.3,228.7c-0.7,0.3-1.3,0.5-2,0.8l-1.6,14.6c0,0,3.2,0,8.3-1.1C140.2,238.9,138.5,232.8,136.3,228.7z
					"/>
				<path fill="#F9D2A2" d="M101,244.2c3.6,1.8,8.8,3.9,15.5,5c7.8,1.3,18.4-2.5,22.6-4.3c-0.4-2.5-2.7-14.1-6.5-19.6l-8.1,3.4
					l-15.3-2.6C109.1,226.2,108,231.4,101,244.2z"/>
				<g>
					<path fill="#ED9A9B" d="M154.3,224.2c0,0,9.1-8.8,31.9-17.8c9.8-3.9,6.5,2.4-1.9,9.9c-11.2,10-19.8,19.3-27.3,17.2
						C154.1,232.6,154.3,224.2,154.3,224.2z"/>
					<path fill="#ED9A9B" d="M197.2,199.3c0,0,0.6-0.6,0-2.1c-0.6-1.5-1.9-1.6-1.9-1.6s0.7-1.3-0.4-3c-1.1-1.7-2.7-0.6-2.7-0.6
						s0.2,1.3-1.5,5.5c-1.7,4.1-4.6,5.3-4.6,5.3s-3.9,1.9-7.5,0.1l0,0c0,0-1.2-3.9-2.7-4.6c-1.5-0.7-2.9-0.1-2.1,1.3
						c0.7,1.4,4.1,8.5,4.1,8.5l0,0c1.3,3.7,8.2,5.6,10.6,4.1c6.5-4,9.8-8.7,10-10.6C198.7,199.6,197.2,199.3,197.2,199.3z"/>
				</g>
			</g>
			<path fill="#121F3E" d="M194.7,208.8l-3.1-25.5c-0.1-0.8-0.7-1.3-1.5-1.3h-8.8c-0.6,0-1,0.3-1.3,0.8c0.4,0,0.8,0.3,0.8,0.9
				c0,1.3-0.1,2.6,0.1,3.9c0.2,1.3,0.6,2.6,0.9,3.9c0.5,2.4,0.9,4.8,1.3,7.2c0.2,1.2,0.5,2.4,0.6,3.7c0.1,1.2,0.1,2.4,0.3,3.7
				c0.1,1,0.4,4,1.6,4.4c0.3,0.1,0.4,0.2,0.5,0.4l7.1-0.4C194.1,210.4,194.8,209.6,194.7,208.8z"/>
			<path fill="#FFFFFF" d="M189.9,183.9c-0.1-0.8-0.7-1.3-1.5-1.3h-8.4c-0.2,0.3-0.4,0.7-0.3,1.2l4,25.9c0.1,0.8,0.8,1.3,1.6,1.3
				l7.4-0.4c0.3-0.3,0.4-0.7,0.3-1.1L189.9,183.9z"/>
			<g>
				<path fill="#F4C39F" d="M140.9,253.5c0,0,14.8-1.2,30.4-15c15.6-13.8-14.5-8.2-30.2,0.4L140.9,253.5z"/>
				<path fill="#F9D2A2" d="M109.4,256.8c3.7,1.4,9.2,3,15.9,3.4c7.9,0.5,18-4.3,22.1-6.5c-0.6-2.4-4-13.7-8.4-18.8l-7.7,4.2
					l-15.5-1.1C115.7,238,115.1,243.3,109.4,256.8z"/>
				<g>
					<path fill="#F4C39F" d="M160.4,231.7c0,0,8.2-9.6,30-20.9c9.4-4.8,6.7,1.7-0.9,10c-10.2,11-17.8,21.2-25.5,19.8
						C161.1,240.1,160.4,231.7,160.4,231.7z"/>
					<path fill="#F4C39F" d="M200.7,202.7c0,0,0.5-0.7-0.2-2.1c-0.8-1.4-2.1-1.5-2.1-1.5s0.6-1.4-0.7-3c-1.3-1.6-2.7-0.4-2.7-0.4
						s0.3,1.3-0.9,5.6c-1.3,4.3-4,5.7-4,5.7s-3.7,2.3-7.4,0.9l0,0c0,0-1.6-3.7-3.1-4.3c-1.5-0.6-2.9,0.2-2,1.5
						c0.9,1.3,4.9,8.1,4.9,8.1l0,0c1.7,3.6,8.7,4.8,11,3.1c6.1-4.6,8.9-9.6,8.9-11.5C202.2,202.9,200.7,202.7,200.7,202.7z"/>
				</g>
			</g>
			<g>
				<g>
					<path fill="#50C8F0" d="M168.5,280.7v16.5c1.2-2.3,2.2-4.6,2.7-6.1C172.7,286.6,171.3,283.3,168.5,280.7z"/>
				</g>
				<g>
					<path fill="#06182B" d="M265.9,251.9c0,0,0.7,0.7,2.9,0.1c2.2-0.6,9.9-5.4,10.7-7.6c0.8-2.3-12.7-35-16.6-34.3
						c-3.5,0.6-3.2,31.9-3.2,31.9L265.9,251.9z"/>
					<path fill="#F4C39F" d="M254.5,242.6l6.5-3.3c0,0,6.3,3.5,6.1,12l-6.5,3.3L254.5,242.6z"/>
					<path fill="#0A2544" d="M218,272.6c-3.8-12.3-20.5-9.8-49.5,3.2v39.5c3.9-1.8,9.6-4.4,15.8-7.7
						C201.3,298.5,221.8,284.7,218,272.6z"/>
					<path fill="#06182B" d="M200.6,297.8l63-42.1c0,0-3.8-12.3-9.5-14.4l-60.3,25.1C193.8,266.4,183.2,291.5,200.6,297.8z"/>
				</g>
				<path fill="none" stroke="#50C8F0" stroke-width="0.9025" stroke-miterlimit="10" stroke-dasharray="4.8136,3.6102" d="
					M170,290.2c27.1-15.8,56.6-27.8,84.4-41.8"/>
			</g>
			<g>
				<path fill="#081C2C" d="M129.8,278.4c0,0,20.7-2.7,22.6-0.1c2,2.6-15.7,11.4-15.7,11.4l-27.6-2.2L129.8,278.4z"/>
			</g>
			<g>
				<path fill="#F9D2A2" d="M155,311.7c6.3-2.7,15.9-4.9,21.1-9.3c2.9-2.4,7-10.1,8.2-13.9c4.3-13.4-17-16.6-24.8-21.1
					c-5.6-3.3-10.1-8-14.4-12.8c-3.5-3.9-6.8-7.9-10-12c-2.9-3.7-3.8-6.1-7.1-9.4c-5.9-6-17.5-4.4-23.7-1.3
					c-3.8,1.9-7.5,3.9-10.6,6.7c-3.6,3.2-4.8,6-5.4,10.6c-1,9.1,0.8,18.4,5.1,26.5l17.5,33.2L155,311.7z"/>
				<path fill="#FA9300" d="M133.6,273.1c-5.6-3.3-10.1-8-14.4-12.8c-3.5-3.9-6.8-7.9-10-12c-2.9-3.7-3.8-6.1-7.1-9.4
					c-1.4-1.4-1.6-3.3-3.5-3.9c-1.2,0.8-3.9,2.6-5,3.6c-3.6,3.2-4.8,6-5.4,10.6c-1,9.1,0.8,18.4,5.1,26.5l17.5,33.2l34.8,2.1
					c1.8-0.9,3.4-1.8,4.7-3c2.9-2.4,7-10.1,8.2-13.9C162.7,280.9,141.4,277.7,133.6,273.1z"/>
				<path fill="#FA9300" d="M128.6,250.1c-5.4-1.1-23-6.7-28.3-8.3c-1,2.1,10,8.7,8.5,11.5c3.6,1.8,8.8,3.9,15.5,5
					c7.8,1.3,18.4-2.5,22.6-4.3c-0.1-0.4-0.2-1.2-0.4-2.1C140.5,251.7,134.6,251.3,128.6,250.1z"/>
			</g>
			<g>
				<path fill="#0A2544" d="M278.9,249.4c0,0,0.7,0.7,2.9,0.1c2.2-0.6,9.9-5.4,10.7-7.6c0.8-2.3-12.7-35-16.6-34.3
					c-3.5,0.6-3.2,31.9-3.2,31.9L278.9,249.4z"/>
				<path fill="#F4C39F" d="M267.5,240.1l6.5-3.3c0,0,6.3,3.5,6.1,12l-6.5,3.3L267.5,240.1z"/>
				<path fill="#5B67F0" d="M197.3,305.1c17-9.1,37.5-22.9,33.7-35c-4.7-15.1-28.4-7.9-70.5,13.2l-53.8,30.2l69.5,1.6
					c0,0,1-0.4,2.9-1.2C182.8,312.3,189.7,309.1,197.3,305.1z"/>
				<path fill="#081C2C" d="M154.2,286.9c0,0,0.1,6.4-4.4,14.5c-1.6,2.8-7.6,7.3-7.6,7.3l-27.7,0.3L154.2,286.9z"/>
				<path fill="#5B67F0" d="M213.6,295.3l63-42.1c0,0-3.8-12.3-9.5-14.4l-60.3,25.1C206.8,263.9,196.3,289,213.6,295.3z"/>
			</g>
			<path fill="#FA9300" d="M125.8,231.6c-6.2-4-16.1-2.4-21.7,0.4c-2,1-4,2.1-5.9,3.2c0.8,4.2,3.8,5.6,7.6,6
				c0.6,0.1,1.3,0.2,1.9,0.2c7.6-0.6,16-3.2,17.7-7.2C125.7,233.4,125.9,232.5,125.8,231.6z"/>
			<path fill="#F4C39F" d="M104.2,231.8c1,2.1,1.4,4,1.6,5.5c7.9,0.9,11-6.1,11-6.1c-0.6-0.5-1.2-1.1-1.9-1.8
				c-0.7-0.8-1.4-1.7-2.1-2.7c-1.5-2.4-2.3-4.8-2.7-6.6c-0.1-0.5-0.2-1-0.3-1.4l-11,6.1c0.4,0.4,1,0.9,1.5,1.4c1,1,2,2.3,3,4
				C103.7,230.8,104,231.3,104.2,231.8z"/>
			<path fill="#ED9A9B" d="M104.3,221.8l-5.4,3c0.4,0.4,1,0.9,1.5,1.4c1,1,2,2.3,3,4c0.3,0.5,0.5,1,0.8,1.5c1,2.1,1.4,4,1.6,5.5
				c2.8,0.3,5-0.4,6.7-1.4C108.6,232.2,105.7,227.3,104.3,221.8z"/>
			<path fill="#ED9A9B" d="M100.5,226.3c1,1,3.2,4.7,4.1,6.4c3.4,0.2,8.1,0,10.4-3.2c-0.7-0.8-1.4-1.7-2.1-2.7
				c-1.5-2.4-2.3-4.8-2.7-6.6c-0.6-0.3-1.1-0.6-1.4-0.8c-0.4-0.2-0.6-0.3-0.6-0.3l-1.6,1.5L100.5,226.3z"/>
			<g>
				<g>
					<path fill="#F4C39F" d="M123.2,198.9l-0.4-1l-5.5-16.8c-10.2-2.7-31.7,1.4-37.2,7.7c-6.9,8,0.1,31.8,9.2,37.1
						c8.1,4.7,27.8,1.5,33.9-5.5c3.8-4.4,5.3-13.9,4.3-22.5C125.3,198.1,123.2,198.9,123.2,198.9z"/>
					<path fill="#ED9A9B" d="M111.3,225.3c-9.5,0-18.4-5.4-23.4-12.5c-2.3,1.1-4,2.6-6.5,3c2.1,4.5,4.9,8.3,7.9,10.1
						c6.1,3.6,18.8,2.6,27.3-1.1C114.9,225.2,113.1,225.3,111.3,225.3z"/>
					<path fill="#ED9A9B" d="M117.3,181.1c-7.8-2.1-22.3-0.1-31.1,3.7c-0.7,2.8-1.2,5.1-1.2,5.9c0.2,1.8,4.2,8,4.2,8s6.1-4.1,6.4-8
						c0,0,15.3-0.4,23.9-2.5L117.3,181.1z"/>
					<path fill="#061A2D" d="M75,180.2c-11.1,9.1,5.1,44.2,11.3,41.2c10.5-5.2,1.1-4.6-1.2-15.3c-2.3-10.7,4.4-4,4.4-4
						s-2.5-10.6-0.5-13.3c2-2.8-0.6-3.6-1-3.6C87.5,185.2,75,180.2,75,180.2z"/>
					<path fill="#F4C39F" d="M87.5,200.7c-0.8-1.2-4.8-0.9-6.9,1.1s1.6,8.9,4.3,9.5c2.2,0.5,4.4,0.3,5-0.8
						C90.5,209.4,89,202.9,87.5,200.7z"/>
					<path fill="#061A2D" d="M94.3,188.6V183c-3,1.3-5.2,2.6-6.1,3.5c-2.9,2.9-2.7,12-2.7,12l1.5,4c0,0,2.4,7.9,3.4,8.9
						c1,1,3,2,2.4,1.2c-0.6-0.7-2.2-12.3-2.7-14.5C89.6,195.8,92.5,196.1,94.3,188.6C94.2,188.6,94.2,188.6,94.3,188.6z"/>
					<path fill="#061A2D" d="M120.6,184.3c5.1-2,9.9-4.2,7.9-9.3c0-0.1-0.1-0.2-0.1-0.3c-4-9.4-31.6-12.4-47.5,4.9
						c0,0-4.2-1.7-7.6,2c-3.4,3.7-1,14.1,2.8,17.1l8.6-9.8C84.8,188.9,107.4,189.3,120.6,184.3z"/>
				</g>
				<path fill="#F4C39F" d="M123.2,198.9c0,0,4.7-2.2,6.1,1.1c1.6,3.7-2.4,6.2-2.4,6.2"/>
				<path fill="none" stroke="#6C351F" stroke-linecap="round" stroke-linejoin="round" stroke-miterlimit="10" d="M122.3,196.5
					c0.3,1.1,0.6,2,0.9,2.5c0,0,4.7-2.2,6.1,1.1c1.6,3.7-2.4,6.2-2.4,6.2"/>
				<path fill="none" stroke="#6C351F" stroke-linecap="round" stroke-linejoin="round" stroke-miterlimit="10" d="M108.9,194
					c0,0,0.6-3.3,4.4-3.3"/>
				<path fill="#6C351F" d="M112.4,198.3c0.2,1.4,1,2.5,1.6,2.3c0.7-0.1,1-1.3,0.8-2.7c-0.2-1.4-1-2.5-1.6-2.3
					C112.5,195.7,112.1,196.9,112.4,198.3z"/>
				<path fill="#6C351F" d="M85.2,204.4c0.6,1.4,0.7,2.8,0.1,3.1c-0.6,0.3-0.7-1.1-1.3-2.6c-0.6-1.4-1.6-2.4-1-2.6
					C83.6,202,84.6,202.9,85.2,204.4z"/>
				<path fill="#061A2D" d="M126.5,221.4c2.2-7.2,1.9-12.1-8.7-10.4c-14.1,2.3-14.3,8-13.6,14.1C104.9,231.2,124.2,229,126.5,221.4z
					"/>
				<path fill="#F1728E" d="M109.4,207c0.1,0.8,2.4,1.1,5,0.7c2.7-0.4,4.7-1.5,4.6-2.3c-0.1-0.8-2.4-1.1-5-0.7
					C111.3,205.1,109.3,206.1,109.4,207z"/>
				<g>
					<path fill="#FFFFFF" d="M116.2,217.6c0.3,0.6,1,1.5,2.1,2c0.9,0.4,2,0.6,3.5,0.1c1.7-0.6,2.7-1.4,3.3-2.2
						c0.8-1.2,0.9-2.4,0.9-3c0-0.3-0.3-0.5-0.6-0.4l-8.9,2.9C116.2,217,116,217.3,116.2,217.6z"/>
				</g>
			</g>
			<polyline fill="none" stroke="#50C8F0" stroke-width="0.9025" stroke-miterlimit="10" stroke-dasharray="4.8136,3.6102" points="
				136.4,315.4 197.1,279.3 267.4,245.9 			"/>
			<g>
				<g>
					<polyline fill="#597D86" points="79.1,406.5 112.4,301.4 123.4,301.4 83.2,406.5 					"/>
					<path opacity="0.36" fill="#009345" d="M108.9,318c-1-1.4-2-2.9-3.1-4.4l4.5-14.2h11l-8.9,23.3
						C111.3,321.1,110.1,319.6,108.9,318z"/>
					<polygon fill="#597D86" points="134.4,319.6 110.4,404.5 106.3,404.5 124.6,319.6 					"/>
					<polygon fill="#597D86" points="161.4,319.6 179.7,404.5 175.6,404.5 151.6,319.6 					"/>
					<polygon fill="#597D86" points="177.3,319.6 195.6,404.5 191.5,404.5 167.5,319.6 					"/>
					<polygon fill="#496A72" points="105.6,348 123.4,301.4 112.4,301.4 97.6,348 					"/>
					<polygon fill="#496A72" points="126.3,348 134.4,319.6 124.6,319.6 118.4,348 					"/>
					<polygon fill="#496A72" points="167.6,348 161.4,319.6 151.6,319.6 159.7,348 					"/>
					<polygon fill="#496A72" points="183.4,348 177.3,319.6 167.5,319.6 175.6,348 					"/>
				</g>
				<path fill="#FFFFFF" d="M130.6,315.5c0.6-1.3,0.6-2.7,0-4.1l-33.1-71.6c-4.1-9-14.8-12.9-23.8-8.8c-2.5,1.1-3.5,4-2.4,6.5
					l36,77.9H130.6z"/>
				<path fill="#D0D6D8" d="M115.3,311.5l-33.1-71.6c-1.8-4-4.9-6.9-8.6-8.7c-2.4,1.2-3.4,4-2.3,6.4l36,77.9h7.9
					C115.9,314.3,116,312.8,115.3,311.5z"/>
				<path fill="#FFFFFF" d="M106.9,308.7h71.1c8.3,0,15.1,6.8,15.1,15.1v0c0,2.3-1.8,4.1-4.1,4.1h-82.1c-2.3,0-4.1-1.8-4.1-4.1v-11
					C102.8,310.5,104.7,308.7,106.9,308.7z"/>
				<path fill="#D0D6D8" d="M102.8,321.7v2c0,2.3,1.8,4.1,4.1,4.1h82.1c2.3,0,4.1-1.8,4.1-4.1c0-0.7-0.1-1.4-0.2-2H102.8z"/>
			</g>
			<linearGradient id="SVGID_1_" gradientUnits="userSpaceOnUse" x1="44.9959" y1="409.1314" x2="449.0427" y2="409.1314">
				<stop  offset="0" style="stop-color:#09005D"/>
				<stop  offset="1" style="stop-color:#1A0F91"/>
			</linearGradient>
			<path fill="url(#SVGID_1_)" d="M444.5,413.7h-395c-2.5,0-4.5-2-4.5-4.5l0,0c0-2.5,2-4.5,4.5-4.5h395c2.5,0,4.5,2,4.5,4.5l0,0
				C449,411.6,447,413.7,444.5,413.7z"/>
			<g>
				<polygon fill="#D0D6D8" points="382.2,286.7 412.1,404.5 399.1,404.5 376.3,286.7 				"/>
				<polygon fill="#D0D6D8" points="282.1,286.7 312,404.5 299,404.5 276.2,286.7 				"/>
				<polygon fill="#FFFFFF" points="403.3,286.7 380.5,404.5 367.5,404.5 397.5,286.7 				"/>
				<polygon fill="#FFFFFF" points="303.2,286.7 280.4,404.5 267.4,404.5 297.4,286.7 				"/>
				<polygon fill="#D0D6D8" points="400.1,303.4 403.3,286.7 397.5,286.7 393.2,303.4 				"/>
				<polygon fill="#D0D6D8" points="300,303.4 303.2,286.7 297.4,286.7 293.1,303.4 				"/>
				<rect x="248.8" y="270.9" fill="#FFFFFF" width="172.6" height="16.6"/>
				<rect x="248.8" y="270.9" fill="#D0D6D8" width="104.7" height="16.6"/>
				<rect x="248.8" y="283.5" fill="#D0D6D8" width="172.6" height="4"/>
				<rect x="248.8" y="283.5" fill="#B3BABC" width="104.7" height="4"/>
			</g>
			<g>
				<path fill="#061A2D" d="M300,350.7H237c-6.7,0-12.1,5.4-12.1,12.1v41.8h87v-41.8C312,356.1,306.6,350.7,300,350.7z"/>
				<path fill="#061A2D" d="M267.4,334.5c-11.3,0-20.4,6.9-20.4,15.4v4.3h5V351c0-6.5,6.9-11.7,15.5-11.7c8.5,0,15.5,5.2,15.5,11.7
					v3.2h5v-4.3C287.9,341.4,278.7,334.5,267.4,334.5z"/>
				<path fill="#344F6C" d="M302.2,350.7h-66.1c-6.1,0-11.1,5-11.1,11.1v9.5h69.2c4.5,0,8.1-3.6,8.1-8.1V350.7z"/>
				<path fill="#F2F3F3" d="M251.3,365.1v12.5h20v-12.5H251.3z M267.4,375.2h-12.3v-7.7h12.3V375.2z"/>
			</g>
			<path fill="#597D86" d="M403.2,270.9h-94.8l14.9-61.7c0.1-0.3,0.3-0.5,0.6-0.5h93.6c0.4,0,0.7,0.4,0.6,0.7L403.2,270.9z"/>
			<path fill="#FFFFFF" d="M399.1,257.9h-82c-0.4,0-0.7-0.4-0.6-0.7l10.3-42.6c0.1-0.3,0.3-0.5,0.6-0.5h82c0.4,0,0.7,0.4,0.6,0.7
				l-10.3,42.6C399.6,257.8,399.4,257.9,399.1,257.9z"/>
			<rect x="274.5" y="265.1" fill="#365156" width="129" height="5.8"/>
			<rect x="347.5" y="265.1" fill="#496A72" width="56.1" height="5.8"/>
			
				<linearGradient id="SVGID_00000054243261982850476390000010627588818277132419_" gradientUnits="userSpaceOnUse" x1="248.9014" y1="198.2019" x2="335.481" y2="198.2019">
				<stop  offset="0" style="stop-color:#09005D"/>
				<stop  offset="1" style="stop-color:#1A0F91"/>
			</linearGradient>
			<path fill="url(#SVGID_00000054243261982850476390000010627588818277132419_)" d="M248.9,179.8v21.4c0,2.8,2.3,5.1,5.1,5.1h62
				l14.4,15.4v-15.4l0,0c2.8,0,5.1-2.3,5.1-5.1v-21.4c0-2.8-2.3-5.1-5.1-5.1H254C251.2,174.7,248.9,177,248.9,179.8z M266.5,196.9
				c-3.7,0-6.7-3-6.7-6.7s3-6.7,6.7-6.7c3.7,0,6.7,3,6.7,6.7S270.1,196.9,266.5,196.9z M292.2,196.9c-3.7,0-6.7-3-6.7-6.7
				s3-6.7,6.7-6.7c3.7,0,6.7,3,6.7,6.7S295.9,196.9,292.2,196.9z M317.9,196.9c-3.7,0-6.7-3-6.7-6.7s3-6.7,6.7-6.7
				c3.7,0,6.7,3,6.7,6.7S321.6,196.9,317.9,196.9z"/>
			
				<linearGradient id="SVGID_00000106850542649227963890000005007053767526025606_" gradientUnits="userSpaceOnUse" x1="343.3212" y1="182.7251" x2="391.7558" y2="182.7251">
				<stop  offset="0" style="stop-color:#6780C6"/>
				<stop  offset="1" style="stop-color:#1A0F91"/>
			</linearGradient>
			<path fill="url(#SVGID_00000106850542649227963890000005007053767526025606_)" d="M388.9,169.6h-42.8c-1.6,0-2.8,1.3-2.8,2.8v12
				c0,1.6,1.3,2.8,2.8,2.8l0,0v8.6l8.1-8.6h34.7c1.6,0,2.8-1.3,2.8-2.8v-12C391.8,170.9,390.5,169.6,388.9,169.6z M378.2,178.3
				c0-2.1,1.7-3.7,3.7-3.7s3.7,1.7,3.7,3.7s-1.7,3.7-3.7,3.7S378.2,180.3,378.2,178.3z M363.8,178.3c0-2.1,1.7-3.7,3.7-3.7
				c2.1,0,3.7,1.7,3.7,3.7s-1.7,3.7-3.7,3.7C365.5,182,363.8,180.3,363.8,178.3z M349.4,178.3c0-2.1,1.7-3.7,3.7-3.7
				c2.1,0,3.7,1.7,3.7,3.7s-1.7,3.7-3.7,3.7C351.1,182,349.4,180.3,349.4,178.3z"/>
			<g>
				<path fill="#FFFFFF" d="M325.2,157.9c0-2.7,2.1-4.8,5.1-4.8c3,0,5.1,2,5.1,4.8c0,2.7-2.1,4.9-5.1,4.9
					C327.3,162.7,325.2,160.5,325.2,157.9z M325.3,124.8h10l-1.7,24.5H327L325.3,124.8z"/>
			</g>
			<g>
				<polygon fill="#FFFFFF" points="262.7,158.9 231.4,158.9 247,171.1 				"/>
				<polygon fill="#FFFFFF" points="247,173.8 230.5,160.9 230.5,180.3 263.6,180.3 263.6,160.9 				"/>
			</g>
			<g>
				<polygon fill="#FFFFFF" points="288.7,149.1 270.2,149.1 279.5,156.3 				"/>
				<polygon fill="#FFFFFF" points="279.5,157.9 269.7,150.3 269.7,161.8 289.3,161.8 289.3,150.3 				"/>
			</g>
			<g>
				<polygon fill="#5C98D1" points="379.5,225.4 348.2,225.4 359.9,237.5 				"/>
				<polygon fill="#5C98D1" points="359.9,240.2 347.3,227.4 342.4,246.8 375.6,246.8 380.5,227.4 				"/>
			</g>
			<polygon fill="#FFFFFF" points="412.1,186.8 414.2,203 418,203 419.9,186.1 			"/>
			<polygon fill="#FFFFFF" points="439.9,218.6 425.4,211 423.2,214.1 436,225.4 			"/>
			<polygon fill="#FFFFFF" points="432.4,192.2 421.3,204.3 423.8,207.2 437.9,197.7 			"/>
		</g>
	</g>
</g>
</svg>