<?xml version="1.0" encoding="UTF-8"?>
<svg id="Calque_2" xmlns="http://www.w3.org/2000/svg" viewBox="0 0 1062.7 998.22">
    <g id="_">
        <path
            d="M282.37,496.19h181.82c38.83,0,70.6,31.76,70.6,70.59s-31.84,70.6-70.6,70.6h-181.8v219.67h281.21c98.36,0,187.88-40.3,252.75-105.19,64.87-64.88,105.19-154.38,105.19-252.74s-40.31-187.87-105.19-252.75c-64.87-64.89-154.39-105.19-252.75-105.19H141.19v106.91h429.91c38.83,0,70.6,31.76,70.6,70.59s-31.8,70.6-70.6,70.6H282.37v106.91ZM563.6,0c137.32,0,262.14,56.14,352.54,146.57,90.42,90.42,146.56,215.24,146.56,352.55s-56.15,262.12-146.56,352.54c-90.4,90.42-215.22,146.56-352.54,146.56H282.39v-141.18H141.19V248.09H0V0H563.6Z"
            style="fill:#4034be;" />
    </g>
</svg>