<svg version="1.1" xmlns="http://www.w3.org/2000/svg" xmlns:xlink="http://www.w3.org/1999/xlink" x="0px" y="0px"
	 viewBox="0 0 3710 3710" enable-background="new 0 0 3710 3710" xml:space="preserve">
<g id="Background">
	<g>
		<g>
			<rect fill="#FFFFFF" width="3710" height="3710"/>
		</g>
	</g>
</g>
<g id="Illustration">
	<g>
		
			<linearGradient id="SVGID_1_" gradientUnits="userSpaceOnUse" x1="-1027.0886" y1="1325.2952" x2="-3137.6128" y2="-952.7312" gradientTransform="matrix(-0.9748 -0.1323 0.1345 -0.9909 -654.8552 1069.4224)">
			<stop  offset="0" style="stop-color:#DAE3FE"/>
			<stop  offset="1" style="stop-color:#E9EFFD"/>
		</linearGradient>
		<path fill="url(#SVGID_1_)" d="M636.7,1217.3C1010.6,584,1796,396.8,2374,525.4c157.8,35.1,475.3,105.7,693.4,380.9
			c418.8,528.4,213.2,1486.1-325.2,1993.3c-69.3,65.3-547,501.1-1186.6,407.6c-468.2-68.5-760.8-382.4-796.3-421.4
			c-44.8-49.2-142.6-165.1-221.4-338.5C352.7,2139.8,403.1,1613,636.7,1217.3z"/>
		<g>
			<path fill="#BDD0FB" d="M936.7,461.4c7.5-12,26.2-6,25.2,8.2c-9.9,136.7-24.8,496.1,69.7,723.7
				c153.9,370.6,159.9,884.4-87.7,1060.2C944,2253.4,118.2,1771.7,936.7,461.4z"/>
			<path opacity="0.43" fill="#FFFFFF" d="M901.2,648.9c-0.8,3.3-1.4,7.2-2.1,10.9l-1.9,11.2l-3.6,22.4c-2.3,15-4.5,29.9-6.6,44.9
				c-4.2,30-8,60-11.5,90c-7.1,60.1-13.1,120.3-17.9,180.6c-9.4,120.6-15.1,241.6-14.5,362.6c0.5,60.5,1.6,120.9,5.1,181.3
				c3.5,60.4,8.4,120.6,15.7,180.6c0.8,7.5,1.8,15,2.8,22.5l3.1,22.5l3.1,22.5c1.1,7.5,2.4,14.9,3.6,22.4
				c2.5,14.9,4.7,29.9,7.6,44.7l8.7,44.5c12.4,59.2,27.6,117.7,46.1,175.3l0,0c0.3,0.9-0.2,1.9-1.1,2.2c-0.9,0.3-1.8-0.2-2.2-1.1
				c-20.2-57.2-36.3-115.8-49.8-175l-9.3-44.6c-3-14.9-5.4-29.9-8.1-44.8c-1.3-7.5-2.7-14.9-3.9-22.4l-3.3-22.5l-3.3-22.5
				c-1.1-7.5-2.2-15-3.1-22.5c-15.2-120.4-21.8-241.8-22-363.1c-0.2-60.7,1.5-121.3,4.1-181.9c2.7-60.6,6.6-121.1,12.1-181.5
				c5.5-60.4,11.9-120.7,19.8-180.8c4-30,8.3-60,13-90c2.4-15,4.8-29.9,7.4-44.9l4.1-22.4l2.2-11.2c0.8-3.8,1.4-7.3,2.5-11.4
				c0.2-0.9,1.2-1.5,2.1-1.2c0.9,0.2,1.4,1.1,1.2,2L901.2,648.9z"/>
		</g>
		<g>
			<path fill="#BDD0FB" d="M942.9,2306.9c0,0,69.3-183.9-40.3-442.1C800.9,1625.2,540.9,1061.1,532.3,803
				c-0.4-11.4-16-14.3-20.3-3.8c-46.8,113.4-141.7,406.7-58.7,769.4C560.4,2036.3,942.9,2306.9,942.9,2306.9z"/>
			<path opacity="0.45" fill="#FFFFFF" d="M517.4,1033.6c-3,13.2-4.5,26.7-6.1,40.1l-1.8,20.2c-0.5,6.7-0.7,13.5-1.1,20.2
				c-0.1,3.4-0.4,6.7-0.4,10.1l-0.1,10.1l-0.1,20.3l0.7,20.2c0.3,6.7,0.3,13.5,0.9,20.2c3.2,53.9,10.8,107.5,23.1,160
				c12,52.5,26.8,104.5,45.8,155l6.9,19l3.5,9.5l3.9,9.3l15.6,37.3c2.6,6.2,5.1,12.5,7.9,18.6l8.4,18.5l16.7,37
				c22.7,49.1,45.9,98,69.7,146.6c11.8,24.4,24,48.5,36.1,72.7l36.4,72.6c24.3,48.5,49,96.7,71.5,146.2
				c5.8,12.3,10.9,24.9,16.3,37.4c2.8,6.2,5.1,12.6,7.6,18.9c2.4,6.4,5,12.6,7.3,19.1c9.1,25.6,16.7,51.9,21.3,78.8
				c0.2,0.9-0.5,1.8-1.4,2c-0.9,0.2-1.8-0.4-2-1.3l0-0.1c-3.2-13.1-5.9-26.3-10.3-39.1c-3.7-13-8.7-25.5-13.3-38.2
				c-2.4-6.3-5.2-12.5-7.7-18.7c-2.6-6.2-5.1-12.5-8-18.6c-5.7-12.3-11.1-24.6-17.2-36.7c-23.5-48.7-48.7-96.6-73.8-144.6
				l-37.6-72.1c-12.3-24.2-24.6-48.3-36.6-72.6c-24.4-48.5-47.5-97.5-70.4-146.7l-16.8-37.1l-8.4-18.5c-2.8-6.2-5.2-12.6-7.9-18.8
				l-15.6-37.7l-3.9-9.4l-3.5-9.6l-6.8-19.2l-6.8-19.2c-2.2-6.4-4.7-12.8-6.5-19.3l-11.6-39.1c-4.2-13-6.9-26.3-10.3-39.5
				c-3.1-13.2-6.8-26.4-9-39.8c-11.1-53.3-17.5-107.6-19.5-161.9c-0.5-6.8-0.2-13.6-0.3-20.4l0-20.4l0.9-20.4l0.5-10.2
				c0.2-3.4,0.6-6.8,0.8-10.2c2-27.1,5.6-54.1,12.4-80.4c0-0.1,0.1-0.2,0.3-0.2C517.4,1033.4,517.5,1033.5,517.4,1033.6z"/>
		</g>
		<g>
			
				<linearGradient id="SVGID_00000078013080805218747890000014877171835385768591_" gradientUnits="userSpaceOnUse" x1="-916.4723" y1="2641.0071" x2="-328.2398" y2="876.3046" gradientTransform="matrix(-1 0 0 1 1155.7772 0)">
				<stop  offset="0" style="stop-color:#09005D"/>
				<stop  offset="1" style="stop-color:#1A0F91"/>
			</linearGradient>
			<path fill="url(#SVGID_00000078013080805218747890000014877171835385768591_)" d="M553.4,2705c0,25.3,20.7,46,46.1,46h2490.6
				c25.3,0,46.1-20.7,46.1-46l20.7-1431.3c0-25.3-29.8-74.7-84.5-71l-2434.1-63c-31.8-0.8-62.5,11.4-85,33.8
				c-22.5,22.4-34.8,53.1-34.1,84.9L553.4,2705z"/>
			<path fill="#7D97F4" d="M598.9,2660.9c0,24,19.6,43.6,43.6,43.6H3030c24,0,43.6-19.6,43.6-43.6l19.6-1299.3
				c-2.3-78.2-70.9-106.3-112.4-104.6l-2332.9-62.6c-22.3-0.6-43.9,8-59.7,23.8c-15.8,15.8-24.4,37.4-23.9,59.7L598.9,2660.9z"/>
			<g>
				<path fill="#BDD0FB" d="M3047.8,2043.1C3047.8,2043.1,3047.7,2043.1,3047.8,2043.1c-3.4,0-6-2.7-5.9-6l1.5-105.4
					c0-3.3,2.7-5.6,6-5.8c3.3,0,5.9,2.7,5.8,6l-1.5,105.4C3053.6,2040.5,3051,2043.1,3047.8,2043.1z"/>
				<path fill="#BDD0FB" d="M3051.6,1784.9C3051.5,1784.9,3051.5,1784.9,3051.6,1784.9c-3.4,0-6-2.7-5.9-6l5.9-403.6
					c-0.1-24.1-7.4-43.4-21.8-57.1c-26.7-25.6-69.1-24.3-70.9-24.2l-745.6-20c-3.3-0.1-5.8-2.8-5.7-6.1c0.1-3.2,2.7-5.7,5.9-5.7
					c0.1,0,0.1,0,0.2,0l745.2,20c4.6-0.2,49.4-1,79.2,27.5c16.7,16,25.3,38.1,25.4,65.7l-5.9,403.7
					C3057.4,1782.3,3054.8,1784.9,3051.6,1784.9z"/>
			</g>
			
				<linearGradient id="SVGID_00000107573741269652296890000005187289154326993299_" gradientUnits="userSpaceOnUse" x1="1849.104" y1="2848.8179" x2="1898.8639" y2="2561.3159">
				<stop  offset="0" style="stop-color:#09005D"/>
				<stop  offset="1" style="stop-color:#1A0F91"/>
			</linearGradient>
			<path fill="url(#SVGID_00000107573741269652296890000005187289154326993299_)" d="M437.6,2869.9h2837.5c3.7,0,6.6-3,6.6-6.6
				v-112.5c0-3.7-3-6.6-6.6-6.6H437.6c-3.7,0-6.6,3-6.6,6.6v112.5C431,2866.9,433.9,2869.9,437.6,2869.9z"/>
		</g>
		<g>
			<g>
				
					<linearGradient id="SVGID_00000175282816415437406860000016205959868613009578_" gradientUnits="userSpaceOnUse" x1="419.4315" y1="2593.3813" x2="1858.4777" y2="2593.3813">
					<stop  offset="0" style="stop-color:#09005D"/>
					<stop  offset="1" style="stop-color:#1A0F91"/>
				</linearGradient>
				<path fill="url(#SVGID_00000175282816415437406860000016205959868613009578_)" d="M1781.5,3037.9
					c-230.3,0.1-1024.8-0.7-1306-13.5c-29.8-1.4-53.3-21.3-53.8-45.6c-2.4-120.3-5.9-561.1,8.2-757.4c2.9-40.9,44.3-72.6,94.5-72.5
					c241.7,0.7,921.6,5.3,1232.5,32.9c37.3,3.3,66.5,27.8,69.6,58.2c13.5,131.2,43.9,574.4,27,744
					C1850.4,3014.5,1819.2,3037.9,1781.5,3037.9z"/>
				<path fill="#91B3FA" d="M1712,2982.9c-186,2.8-804.6,10.8-1033-0.2c-33.4-1.6-60-23.6-61.4-50.9
					c-5.8-112.2-15.9-494.6,3.5-658.6c3.5-29.5,33.3-52.1,69.7-53c189.7-4.5,765.9-17,991.8-6.3c36,1.7,65,25.1,67.7,54.4
					c10.9,121.4,34.6,528.1,22.5,667.5C1770.4,2962.1,1744.2,2982.4,1712,2982.9z"/>
				<path opacity="0.5" fill="#FFFFFF" d="M1818.1,2741.5L1818.1,2741.5c-7.1-0.1-12.8-4.7-13.1-10.5c-1.3-28.4-4.8-108.5-6.7-144.3
					c-0.4-7.1,7.5-12.4,16-10.9l1.4,0.3c5.8,1,10.1,5,10.5,9.8c2.2,24.2,8.3,97.2,5.2,145.5
					C1831.2,2737.2,1825.2,2741.7,1818.1,2741.5z"/>
			</g>
		</g>
		<g>
			<g>
				
					<linearGradient id="SVGID_00000057108819601449196850000007915947369480824974_" gradientUnits="userSpaceOnUse" x1="1617.2997" y1="2586.5371" x2="2287.6277" y2="2586.5371">
					<stop  offset="0" style="stop-color:#09005D"/>
					<stop  offset="1" style="stop-color:#1A0F91"/>
				</linearGradient>
				<path fill="url(#SVGID_00000057108819601449196850000007915947369480824974_)" d="M1628.3,2117.2c-3.5,166.5-15,741-9.5,944.6
					c0.6,21.6,15.4,38.9,33.8,39.6c91.2,3.5,425.4,12.3,574.6,5c31.1-1.5,55.8-31,56.4-67.3c3.1-174.8,9.9-666.5-6.3-891.7
					c-1.9-27-20.1-48.5-43.1-51.2c-99.3-11.6-435-40-563.8-30.2C1647,2067.7,1628.8,2089.9,1628.3,2117.2z"/>
				<path fill="#BDD0FB" d="M1668.9,2168.3c-4.9,134.4-20.4,581.6-15.5,747c0.7,24.2,17,43.7,37.6,45.1c85,5.8,374.9,18.6,499.5,7
					c22.4-2.1,40.1-23.3,41.3-49.6c6.3-137.1,24.5-553.5,19.7-717.1c-0.8-26.1-18-47.4-40.2-49.7c-91.9-9.7-400-32.6-505.9-25.9
					C1685.6,2126.3,1669.8,2145,1668.9,2168.3z"/>
			</g>
		</g>
		<g>
			<circle fill="#FFFFFF" cx="1154.8" cy="2585.9" r="172.7"/>
			<path fill="#FA9300" d="M1140.6,2718.4c-9.2,0.6-17.7-3.7-22.4-11.3l-79.6-127.8c-7.5-12-3.4-28.4,9-36.6
				c12.4-8.3,28.5-5.2,36,6.7l55.2,88.7l72.8-148.4c6.5-13.3,22.2-19.4,35.1-13.6c12.8,5.8,17.9,21.2,11.4,34.5l-94.1,191.9
				c-4.3,8.8-12.9,14.8-22.4,15.8C1141.2,2718.3,1140.9,2718.4,1140.6,2718.4z"/>
		</g>
		<g>
			<path fill="#FFFFFF" d="M1036,1517.5l10.2,2l0,0c2.9,0.6,4.8,3.4,4.2,6.3c-0.6,2.9-3.4,4.8-6.3,4.2c-0.1,0-0.1,0-0.2,0l-10.1-2.4
				c-2.8-0.7-4.5-3.5-3.9-6.2C1030.6,1518.6,1033.3,1516.9,1036,1517.5L1036,1517.5z"/>
			<path fill="#FFFFFF" d="M1070,1523.9l10.2,1.8l0,0c3.3,0.6,5.5,3.7,4.9,7s-3.7,5.5-7,4.9c-0.1,0-0.2,0-0.2,0l-10.2-2.2
				c-3.2-0.7-5.2-3.8-4.5-7C1063.8,1525.4,1066.8,1523.4,1070,1523.9L1070,1523.9z"/>
			<path fill="#FFFFFF" d="M1103.9,1529.8l10.2,1.6l0,0c3.7,0.6,6.2,4,5.6,7.7c-0.6,3.7-4,6.2-7.7,5.6c-0.1,0-0.2,0-0.3,0l-10.2-2
				c-3.5-0.7-5.8-4.1-5.1-7.6C1097.2,1531.5,1100.4,1529.2,1103.9,1529.8L1103.9,1529.8z"/>
			<path fill="#FFFFFF" d="M1138,1534.8l10.2,1.3l0.1,0c4,0.5,6.9,4.2,6.4,8.3c-0.5,4-4.2,6.9-8.3,6.4c-0.1,0-0.2,0-0.3,0l-10.3-1.8
				c-3.9-0.7-6.5-4.4-5.9-8.3C1130.6,1536.9,1134.1,1534.3,1138,1534.8L1138,1534.8z"/>
			<path fill="#FFFFFF" d="M1172.1,1538.9l10.2,1l0.1,0c4.4,0.4,7.6,4.4,7.2,8.8c-0.4,4.4-4.4,7.6-8.8,7.2c-0.1,0-0.2,0-0.3,0
				l-10.4-1.4c-4.3-0.6-7.3-4.6-6.7-8.8C1164.1,1541.5,1167.9,1538.5,1172.1,1538.9L1172.1,1538.9z"/>
			<path fill="#FFFFFF" d="M1206.3,1541.9l10.2,0.6l0.1,0c4.8,0.3,8.4,4.4,8.1,9.2c-0.3,4.8-4.4,8.4-9.2,8.1c-0.1,0-0.2,0-0.3,0
				l-10.4-1.1c-4.7-0.5-8.1-4.6-7.6-9.3c0.5-4.6,4.4-7.9,9-7.6L1206.3,1541.9z"/>
			<path fill="#FFFFFF" d="M1240.5,1543.6l10.3,0.2l0.1,0c5.2,0.1,9.3,4.4,9.1,9.6c-0.1,5.2-4.4,9.3-9.6,9.1c-0.1,0-0.3,0-0.4,0
				l-10.5-0.7c-5.1-0.3-8.9-4.7-8.6-9.7c0.3-4.9,4.5-8.7,9.3-8.6L1240.5,1543.6z"/>
			<path fill="#FFFFFF" d="M1274.7,1543.9l10.3-0.2l0.1,0c5.5-0.1,10.1,4.3,10.2,9.9c0.1,5.5-4.3,10.1-9.9,10.2c-0.1,0-0.3,0-0.4,0
				l-10.5-0.2c-5.4-0.1-9.7-4.6-9.6-10c0.1-5.3,4.4-9.5,9.6-9.6L1274.7,1543.9z"/>
			<path fill="#FFFFFF" d="M1308.8,1542.9l10.2-0.6l0.1,0c5.9-0.3,10.9,4.2,11.3,10.1c0.3,5.9-4.2,10.9-10.1,11.3
				c-0.1,0-0.3,0-0.4,0l-10.5,0.2c-5.8,0.1-10.6-4.5-10.7-10.3c-0.1-5.6,4.3-10.3,9.9-10.7L1308.8,1542.9z"/>
			<path fill="#FFFFFF" d="M1342.9,1540.5l10.2-1l0.1,0c6.2-0.6,11.8,4,12.4,10.2c0.6,6.2-4,11.8-10.2,12.4c-0.1,0-0.3,0-0.4,0
				l-10.5,0.6c-6.1,0.3-11.4-4.4-11.8-10.5c-0.3-6,4.1-11.2,10.1-11.7L1342.9,1540.5z"/>
			<path fill="#FFFFFF" d="M1376.9,1536.9l10.2-1.3l0.1,0c6.6-0.8,12.6,3.8,13.4,10.4c0.8,6.6-3.8,12.6-10.4,13.4
				c-0.1,0-0.3,0-0.5,0l-10.4,0.9c-6.5,0.6-12.2-4.2-12.8-10.7c-0.6-6.3,4-11.9,10.3-12.8L1376.9,1536.9z"/>
			<path fill="#FFFFFF" d="M1410.9,1532.2l10.2-1.6l0.1,0c6.9-1.1,13.4,3.7,14.5,10.6c1.1,6.9-3.7,13.4-10.6,14.5
				c-0.1,0-0.3,0-0.5,0.1l-10.4,1.2c-6.8,0.8-13-4.1-13.8-11c-0.8-6.7,3.9-12.7,10.5-13.8L1410.9,1532.2z"/>
			<path fill="#FFFFFF" d="M1444.7,1526.7l10.1-1.8l0.1,0c7.3-1.3,14.2,3.6,15.4,10.8c1.3,7.3-3.6,14.2-10.8,15.4
				c-0.2,0-0.4,0.1-0.5,0.1l-10.3,1.4c-7.2,1-13.8-4.1-14.8-11.2c-1-7,3.8-13.5,10.7-14.7L1444.7,1526.7z"/>
			<path fill="#FFFFFF" d="M1478.5,1520.6l10.1-2l0.1,0c7.6-1.5,14.9,3.5,16.4,11.1c1.5,7.6-3.5,14.9-11.1,16.4
				c-0.2,0-0.4,0.1-0.5,0.1l-10.3,1.6c-7.5,1.2-14.6-4-15.7-11.5C1466.3,1528.9,1471.2,1522,1478.5,1520.6L1478.5,1520.6z"/>
		</g>
		<g>
			<circle fill="#FFFFFF" cx="836.6" cy="1460.5" r="192.2"/>
			<path fill="#FA9300" d="M820.8,1608c-10.2,0.7-19.7-4.1-25-12.6l-88.6-142.3c-8.3-13.3-3.8-31.6,10-40.8
				c13.8-9.2,31.7-5.8,40,7.5l61.5,98.8l81.1-165.2c7.3-14.8,24.8-21.6,39-15.2c14.3,6.4,20,23.6,12.7,38.5l-104.8,213.6
				c-4.8,9.8-14.3,16.5-24.9,17.6C821.5,1608,821.1,1608,820.8,1608z"/>
		</g>
		<g>
			<path fill="#FFFFFF" d="M1944.7,1889.5l-3.4,9.5l-0.1,0.3c-2.1,5.8-8.5,8.8-14.3,6.7c-5.7-2.1-8.7-8.3-6.8-14l3.4-10.1
				c2-5.9,8.4-9.1,14.3-7.2c5.9,2,9.1,8.4,7.2,14.3c0,0.1,0,0.1-0.1,0.2L1944.7,1889.5z"/>
			<path fill="#FFFFFF" d="M1934.2,1921.5l-2.7,9.8l-0.1,0.2c-1.6,5.7-7.5,9.1-13.2,7.5c-5.6-1.5-9-7.3-7.6-13l2.5-10.3
				c1.4-5.8,7.3-9.4,13.2-7.9c5.8,1.4,9.4,7.3,7.9,13.2c0,0.1,0,0.1-0.1,0.2L1934.2,1921.5z"/>
			<path fill="#FFFFFF" d="M1926,1954.4l-2.1,10l0,0.2c-1.2,5.6-6.6,9.2-12.2,8c-5.5-1.1-9.1-6.5-8.1-12l1.9-10.4
				c1-5.7,6.5-9.5,12.2-8.4c5.7,1,9.5,6.5,8.4,12.2c0,0.1,0,0.1,0,0.2L1926,1954.4z"/>
			<path fill="#FFFFFF" d="M1919.7,1987.8l-1.6,10.1l0,0.1c-0.8,5.4-5.9,9.1-11.3,8.3c-5.3-0.8-9-5.8-8.3-11.1l1.3-10.4
				c0.7-5.5,5.7-9.4,11.2-8.7c5.5,0.7,9.4,5.7,8.7,11.2c0,0.1,0,0.1,0,0.2L1919.7,1987.8z"/>
			<path fill="#FFFFFF" d="M1915.1,2021.7l-1.1,10.2l0,0.1c-0.6,5.2-5.3,9-10.5,8.4c-5.1-0.6-8.9-5.1-8.4-10.2l0.9-10.5
				c0.4-5.3,5.1-9.2,10.4-8.8c5.3,0.4,9.2,5.1,8.8,10.4c0,0.1,0,0.1,0,0.2L1915.1,2021.7z"/>
			<path fill="#FFFFFF" d="M1911.9,2055.7l-0.7,10.3l0,0.1c-0.4,5-4.7,8.8-9.7,8.4c-4.9-0.3-8.7-4.6-8.4-9.5l0.5-10.5
				c0.2-5.1,4.5-9,9.6-8.8c5.1,0.2,9,4.5,8.8,9.6c0,0.1,0,0.1,0,0.2L1911.9,2055.7z"/>
			<path fill="#FFFFFF" d="M1909.9,2089.9l-0.4,10.3l0,0.1c-0.2,4.8-4.2,8.5-9,8.3c-4.7-0.2-8.4-4.1-8.4-8.8l0.1-10.5
				c0.1-4.9,4-8.7,8.9-8.7c4.9,0.1,8.7,4,8.7,8.9c0,0.1,0,0.1,0,0.2L1909.9,2089.9z"/>
			<path fill="#FFFFFF" d="M1909,2124.3l0,10.3v0.1c0,4.6-3.7,8.2-8.3,8.2c-4.5,0-8.1-3.6-8.2-8.1l-0.2-10.5
				c-0.1-4.6,3.6-8.4,8.2-8.5c4.6-0.1,8.4,3.6,8.5,8.2c0,0.1,0,0.1,0,0.2V2124.3z"/>
			<path fill="#FFFFFF" d="M1909.2,2158.6l0.3,10.3l0,0.1c0.1,4.3-3.3,7.9-7.6,8c-4.3,0.1-7.8-3.2-8-7.4l-0.5-10.4
				c-0.2-4.4,3.2-8.1,7.6-8.3c4.4-0.2,8.1,3.2,8.3,7.6c0,0.1,0,0.1,0,0.2L1909.2,2158.6z"/>
			<path fill="#FFFFFF" d="M1910.4,2193l0.5,10.3l0,0.1c0.2,4.1-2.9,7.6-7,7.8c-4,0.2-7.5-2.8-7.8-6.8l-0.8-10.4
				c-0.3-4.1,2.8-7.8,6.9-8.1c4.2-0.3,7.8,2.8,8.1,6.9C1910.4,2192.8,1910.4,2192.8,1910.4,2193L1910.4,2193z"/>
			<path fill="#FFFFFF" d="M1912.6,2227.3l0.8,10.3l0,0.1c0.3,3.8-2.6,7.2-6.4,7.5c-3.8,0.3-7.1-2.5-7.5-6.2l-1.1-10.4
				c-0.4-3.9,2.4-7.4,6.3-7.8c3.9-0.4,7.4,2.4,7.8,6.3C1912.6,2227.1,1912.6,2227.2,1912.6,2227.3L1912.6,2227.3z"/>
			<path fill="#FFFFFF" d="M1915.7,2261.6l1.1,10.3l0,0.1c0.4,3.6-2.2,6.9-5.8,7.2c-3.6,0.4-6.8-2.1-7.2-5.7l-1.4-10.3
				c-0.5-3.7,2.1-7,5.8-7.5s7,2.1,7.5,5.8C1915.6,2261.4,1915.6,2261.5,1915.7,2261.6L1915.7,2261.6z"/>
			<path fill="#FFFFFF" d="M1919.7,2295.8l1.4,10.2l0,0.1c0.5,3.4-1.9,6.5-5.3,6.9c-3.3,0.5-6.4-1.8-6.9-5.1l-1.7-10.3
				c-0.6-3.4,1.8-6.7,5.2-7.2c3.4-0.6,6.7,1.8,7.2,5.2C1919.7,2295.6,1919.7,2295.6,1919.7,2295.8L1919.7,2295.8z"/>
			<path fill="#FFFFFF" d="M1924.8,2329.8l1.7,10.2l0,0.1c0.5,3.1-1.6,6.1-4.7,6.6c-3.1,0.5-6-1.5-6.6-4.6l-2-10.2
				c-0.6-3.2,1.5-6.3,4.6-6.9c3.2-0.6,6.3,1.5,6.9,4.6C1924.7,2329.7,1924.7,2329.7,1924.8,2329.8L1924.8,2329.8z"/>
			<path fill="#FFFFFF" d="M1930.9,2363.7l2.1,10.1l0,0.1c0.6,2.9-1.3,5.7-4.1,6.3c-2.8,0.6-5.6-1.2-6.3-4l-2.3-10.2
				c-0.7-2.9,1.2-5.9,4.1-6.5c2.9-0.7,5.9,1.2,6.5,4.1C1930.9,2363.5,1930.9,2363.6,1930.9,2363.7L1930.9,2363.7z"/>
		</g>
		<g>
			
				<ellipse transform="matrix(0.7071 -0.7071 0.7071 0.7071 -1232.1851 2131.3723)" fill="#FFFFFF" cx="1956.7" cy="2553.1" rx="157.1" ry="157.1"/>
			<path fill="#FA9300" d="M1943.8,2673.6c-8.3,0.5-16.1-3.3-20.4-10.3l-72.4-116.3c-6.8-10.9-3.1-25.8,8.2-33.3
				c11.3-7.5,25.9-4.8,32.7,6.1l50.2,80.7l66.3-135c5.9-12.1,20.2-17.7,31.9-12.4c11.7,5.3,16.3,19.3,10.4,31.4l-85.7,174.6
				c-3.9,8-11.7,13.5-20.4,14.4C1944.4,2673.6,1944.1,2673.6,1943.8,2673.6z"/>
		</g>
		<g>
			<g>
				
					<linearGradient id="SVGID_00000131346840932928748240000009704988297959559811_" gradientUnits="userSpaceOnUse" x1="-12595.6328" y1="-192.2395" x2="-12688.0117" y2="318.5636" gradientTransform="matrix(-0.9937 -0.112 -0.112 0.9937 -9913.165 24.4975)">
					<stop  offset="0" style="stop-color:#E1473D"/>
					<stop  offset="1" style="stop-color:#E9605A"/>
				</linearGradient>
				<path fill="url(#SVGID_00000131346840932928748240000009704988297959559811_)" d="M2631.5,1698.5
					c173.3,5.1,214.2,45.7,214.2,45.7l-97.2,120.9c0,0-168.3-22.4-278.7-129.1c25.4-21.8,44.1-47,56.6-66.8
					C2556.1,1685.7,2591.1,1697.3,2631.5,1698.5z"/>
				
					<linearGradient id="SVGID_00000029723910459669365590000005151820905224697256_" gradientUnits="userSpaceOnUse" x1="-12545.5869" y1="156.7968" x2="-12376.8359" y2="156.7968" gradientTransform="matrix(-0.9937 -0.112 -0.112 0.9937 -9913.165 24.4975)">
					<stop  offset="0" style="stop-color:#FEBBBA"/>
					<stop  offset="1" style="stop-color:#FF928E"/>
				</linearGradient>
				<path fill="url(#SVGID_00000029723910459669365590000005151820905224697256_)" d="M2391.1,1416.2c0.9-5.5,8.5-6.1,10.3-0.9
					l16.6,49.2c3.2,9.5,3.4,19.8,0.6,29.4l-10.8,26.3c-3.8,13-1.9,27,5.4,38.5c17.3,27.4,55,78.2,113.1,110.5
					c-12.4,19.8-31.2,45-56.6,66.8c-40.5-39.2-73.2-89.7-86.9-154.7c-9.6-4.2-15.2-14.3-13.6-24.7L2391.1,1416.2z"/>
			</g>
			<g>
				<g>
					
						<ellipse transform="matrix(0.1126 -0.9936 0.9936 0.1126 546.3845 3162.7854)" fill="#FFFFFF" cx="2044" cy="1275.5" rx="563.9" ry="566.9"/>
					
						<ellipse transform="matrix(0.1128 -0.9936 0.9936 0.1128 546.157 3162.605)" fill="#FA9300" cx="2044" cy="1275.5" rx="545.2" ry="548.1"/>
					<path opacity="0.66" fill="#FFFFFF" d="M2549,1309.3c-0.1,0-0.1,0-0.2,0c-1.9-0.1-3.4-1.8-3.2-3.7c1.3-21,1.2-42.3-0.2-63.2
						c-0.1-1.9,1.3-3.6,3.2-3.7c1.9-0.1,3.6,1.3,3.7,3.2c1.4,21.2,1.5,42.8,0.2,64.1C2552.3,1307.9,2550.8,1309.3,2549,1309.3z"/>
					<path opacity="0.66" fill="#FFFFFF" d="M2518.5,1104.8c-1.4,0-2.7-0.9-3.2-2.2c-66.4-178.2-225.4-302.2-415-323.7
						c-30.2-3.4-60.8-4.2-91-2.1c-1.9,0.1-3.6-1.3-3.7-3.2c-0.1-1.9,1.3-3.6,3.2-3.7c30.6-2,61.6-1.3,92.2,2.2
						c95.5,10.8,185.4,47.9,260.2,107.3c72.7,57.8,128.2,134.2,160.5,220.8c0.7,1.8-0.2,3.8-2,4.5
						C2519.3,1104.7,2518.9,1104.8,2518.5,1104.8z"/>
					
						<ellipse transform="matrix(0.1126 -0.9936 0.9936 0.1126 521.0707 3159.261)" opacity="0.3" fill="#F9D2A2" cx="2029.3" cy="1287.9" rx="485.6" ry="488.1"/>
				</g>
				<g>
					<path fill="#FFFFFF" d="M2172.3,1419.6l-25.1-4.9c0.1-11.5-0.8-23.1-2.6-34.5l24.1-8.4c6.5-2.3,9.9-9.5,7.7-16.1l-14.3-41.5
						c-2.3-6.6-9.4-10.2-16-7.9l-24.2,8.4c-5.6-10-12.1-19.7-19.4-28.8l16.8-19.7c4.5-5.3,3.9-13.4-1.4-18l-33-29.1
						c-5.3-4.7-13.3-4.2-17.8,1.2l-16.9,19.8c-10-6.1-20.4-11.4-31.1-15.6l4.7-25.8c1.3-7-3.3-13.7-10.2-15.1l-43.1-8.8
						c-6.9-1.4-13.5,3.1-14.8,10.1l-4.7,25.8c-11.6-0.3-23.2,0.5-34.7,2.2l-8.8-24.9c-2.4-6.8-9.7-10.4-16.3-8.1l-41.6,14.2
						c-6.7,2.3-10.1,9.6-7.7,16.4l8.8,24.7c-10.1,5.6-19.7,12.2-28.9,19.6l-19.8-17.2c-5.4-4.7-13.5-4.2-18.1,1.2l-28.6,33.5
						c-4.6,5.4-3.9,13.5,1.6,18.2l19.7,17c-6,10.2-11.1,20.9-15.1,31.8l-25.2-4.9c-7-1.4-13.7,3.2-14.9,10.1l-7.7,43.6
						c-1.2,7,3.4,13.7,10.4,15l25.1,4.8c0,11.8,1,23.7,3,35.3l-23.8,8.3c-6.7,2.3-10.1,9.6-7.7,16.3l15.1,41.6
						c2.4,6.6,9.8,10.1,16.4,7.8l23.6-8.2c5.8,10.2,12.6,19.9,20.3,29.1l-16.1,18.9c-4.5,5.3-3.8,13.3,1.5,17.9l33.6,28.5
						c5.4,4.5,13.4,3.9,17.9-1.4l16.1-18.9c10.3,6.1,20.9,11.2,31.8,15.2l-4.4,24.3c-1.2,6.8,3.3,13.4,10.2,14.7l42.9,7.9
						c6.8,1.3,13.4-3.2,14.6-10.1l4.5-24.4c11.6,0.1,23.2-0.8,34.7-2.7l8.3,23.5c2.3,6.5,9.5,10,16,7.7l40.7-14.4
						c6.5-2.3,9.9-9.5,7.6-16l-8.3-23.6c9.9-5.6,19.4-12.2,28.4-19.7l19,16.4c5.2,4.5,13.1,3.9,17.6-1.3l28-32.9
						c4.5-5.3,3.9-13.2-1.3-17.7l-19.1-16.6c5.9-10,10.9-20.4,14.8-31.1l24.8,4.8c6.8,1.3,13.3-3.2,14.5-10l8-42.7
						C2183.5,1427.6,2179.1,1421,2172.3,1419.6z M2046.3,1495.6c-45.4,53.3-125.7,59.3-179.6,13.2c-54.2-46.4-61.2-127.8-15.2-181.7
						c45.9-53.9,127-59.3,180.7-12.3C2085.6,1361.5,2091.8,1442.3,2046.3,1495.6z"/>
					<path fill="#FFFFFF" d="M2332.2,1084.3l-13.9-2.8c-0.1-6.2-0.7-12.5-1.9-18.7l13.3-4.5c3.6-1.2,5.4-5.1,4-8.7l-8.5-22.5
						c-1.4-3.6-5.4-5.5-8.9-4.3l-13.3,4.5c-3.2-5.4-6.9-10.7-11.1-15.6l9-10.6c2.4-2.8,2-7.2-1-9.7l-18.7-15.8
						c-3-2.5-7.4-2.3-9.8,0.6l-9.1,10.6c-5.6-3.3-11.4-6.2-17.4-8.5l2.3-13.9c0.6-3.7-2-7.4-5.8-8.2l-23.9-4.9
						c-3.8-0.8-7.4,1.6-8,5.4l-2.2,13.9c-6.4-0.2-12.8,0.2-19.1,1.1l-5.2-13.5c-1.4-3.6-5.5-5.6-9.1-4.4l-22.7,7.5
						c-3.6,1.2-5.4,5.1-4,8.8l5.1,13.3c-5.5,3-10.7,6.5-15.7,10.5l-11.1-9.3c-3-2.5-7.5-2.3-9.9,0.6l-15.3,18
						c-2.4,2.9-2,7.3,1.1,9.8l11,9.2c-3.2,5.5-5.9,11.2-7.9,17.1l-13.9-2.7c-3.9-0.8-7.5,1.7-8.1,5.4l-3.7,23.5
						c-0.6,3.7,2.1,7.4,5.9,8.2l13.8,2.7c0.1,6.4,0.8,12.8,2.1,19.1l-13,4.4c-3.6,1.2-5.4,5.1-4,8.7l8.8,22.5
						c1.4,3.6,5.5,5.5,9.1,4.3l12.9-4.3c3.3,5.5,7.2,10.8,11.5,15.8l-8.7,10.2c-2.4,2.9-2,7.2,1.1,9.7l18.9,15.6
						c3,2.5,7.4,2.2,9.9-0.7l8.6-10.1c5.7,3.3,11.7,6.1,17.7,8.4l-2.1,13.2c-0.6,3.7,2,7.3,5.8,8l23.8,4.5c3.8,0.7,7.4-1.7,8-5.4
						l2.2-13.2c6.4,0.1,12.8-0.3,19.1-1.3l4.9,12.8c1.4,3.6,5.4,5.4,9,4.2l22.4-7.6c3.6-1.2,5.4-5.1,4-8.6l-4.9-12.8
						c5.4-3,10.6-6.5,15.4-10.5l10.8,9c3,2.5,7.3,2.2,9.7-0.6l15.1-17.7c2.4-2.8,2-7.1-1-9.6l-10.8-9.1c3.1-5.4,5.7-11,7.8-16.8
						l13.8,2.7c3.8,0.7,7.3-1.7,7.9-5.4l3.8-23.1C2338.5,1088.7,2335.9,1085.1,2332.2,1084.3z M2263.5,1124.9
						c-24.4,28.7-68.7,31.6-99.1,6.4c-30.5-25.3-35.3-69.3-10.7-98.2c24.6-28.9,69.2-31.5,99.5-6
						C2283.4,1052.5,2287.9,1096.3,2263.5,1124.9z"/>
				</g>
			</g>
			<g>
				
					<linearGradient id="SVGID_00000108298859523627564010000014127673381937902504_" gradientUnits="userSpaceOnUse" x1="-13120.1436" y1="3077.6084" x2="-13007.5625" y2="3077.6084" gradientTransform="matrix(-0.9987 5.070000e-02 5.070000e-02 0.9987 -10336.2314 595.7192)">
					<stop  offset="0" style="stop-color:#09005D"/>
					<stop  offset="1" style="stop-color:#1A0F91"/>
				</linearGradient>
				<path fill="url(#SVGID_00000108298859523627564010000014127673381937902504_)" d="M2905.2,2965.3c0,0,13.5,19.1,19.4,74
					c0.6,5.1-3.3,9.7-8.4,10l-97.7,5c-3.9,0.2-6.9-3.5-5.9-7.3c4.9-17.2,20.1-59.4,57.5-85L2905.2,2965.3z"/>
				
					<linearGradient id="SVGID_00000039842264322663185910000002736024147192753568_" gradientUnits="userSpaceOnUse" x1="-13077.041" y1="1480.2284" x2="-13031.3809" y2="1480.2284" gradientTransform="matrix(-0.9937 -0.112 -0.112 0.9937 -9913.165 24.4975)">
					<stop  offset="0" style="stop-color:#FEBBBA"/>
					<stop  offset="1" style="stop-color:#FF928E"/>
				</linearGradient>
				<path fill="url(#SVGID_00000039842264322663185910000002736024147192753568_)" d="M2918.5,2935.4l-10.7,45.5
					c-0.9,3.9-4.4,6.8-8.4,6.8c-5.4,0-13.2-0.4-20.5-2.5c-6.7-1.9-10.9-8.5-10.1-15.5l5-44.5L2918.5,2935.4z"/>
				
					<linearGradient id="SVGID_00000155826401009801702920000009743247559109308329_" gradientUnits="userSpaceOnUse" x1="-12858.5898" y1="2727.3743" x2="-12681.9502" y2="2727.3743" gradientTransform="matrix(-0.9994 3.490000e-02 3.490000e-02 0.9994 -10244.1631 734.0373)">
					<stop  offset="0" style="stop-color:#09005D"/>
					<stop  offset="1" style="stop-color:#1A0F91"/>
				</linearGradient>
				<path fill="url(#SVGID_00000155826401009801702920000009743247559109308329_)" d="M2682.1,2968.7c0,0,19.7,28.4,20.7,68.4
					c0.2,9.4-7.4,17.2-16.8,17.5l-151.9,5.3c-7.1,0.2-10.3-8.8-4.6-13.1c28-21.2,83.2-60.8,123.5-77.1L2682.1,2968.7z"/>
				
					<linearGradient id="SVGID_00000150093247503209357470000018060368405176495033_" gradientUnits="userSpaceOnUse" x1="-12760.5234" y1="3615.9822" x2="-12715.1162" y2="3615.9822" gradientTransform="matrix(-0.9907 0.1362 0.1362 0.9907 -10445.4473 1097.9357)">
					<stop  offset="0" style="stop-color:#FEBBBA"/>
					<stop  offset="1" style="stop-color:#FF928E"/>
				</linearGradient>
				<path fill="url(#SVGID_00000150093247503209357470000018060368405176495033_)" d="M2685.9,2920.2l-3.9,58.4
					c-0.4,6.5-6.1,11.7-12.6,11.1c-4-0.3-8.7-1.4-14-3.7c-5-2.2-8.1-7.4-7.9-12.9l2.6-70.4L2685.9,2920.2z"/>
				
					<linearGradient id="SVGID_00000085252692083735980890000014801959322317040048_" gradientUnits="userSpaceOnUse" x1="-13108.417" y1="1083.6213" x2="-12798.835" y2="1083.6213" gradientTransform="matrix(-0.9937 -0.112 -0.112 0.9937 -9913.165 24.4975)">
					<stop  offset="0" style="stop-color:#4F52FF"/>
					<stop  offset="1" style="stop-color:#4042E2"/>
				</linearGradient>
				<path fill="url(#SVGID_00000085252692083735980890000014801959322317040048_)" d="M2988.2,2150.1c0,0,36.7,40.6,39.5,84.7
					c2.8,44.1-105.9,743.9-105.9,743.9s-41.5,2.2-61.1-12.9c0,0,26.5-459.1,19.4-566.7c0,0-152.7,461.5-189.9,543.8
					c0,0-39.8,0.3-51.7-8.6c0,0,95.1-609.8,140.1-715L2988.2,2150.1z"/>
				
					<linearGradient id="SVGID_00000026862756777634054420000015188573006058717366_" gradientUnits="userSpaceOnUse" x1="2955.6262" y1="1283.2051" x2="2929.6831" y2="1973.2778">
					<stop  offset="0" style="stop-color:#4F52FF"/>
					<stop  offset="1" style="stop-color:#4042E2"/>
				</linearGradient>
				<path fill="url(#SVGID_00000026862756777634054420000015188573006058717366_)" d="M2883.5,2385.9c2.4,0,4.6-1.5,5.5-3.8l24-62.3
					l38-18.8c2.9-1.5,4.2-5,2.7-8c-1.5-2.9-5-4.2-8-2.7l-40.1,19.8c-1.3,0.7-2.4,1.8-2.9,3.2l-24.8,64.5c-1.2,3.1,0.3,6.5,3.4,7.7
					C2882.1,2385.8,2882.8,2385.9,2883.5,2385.9z"/>
				
					<linearGradient id="SVGID_00000129923936170219429410000002249830547865886345_" gradientUnits="userSpaceOnUse" x1="3426.7937" y1="565.062" x2="3105.1062" y2="1218.8143">
					<stop  offset="0" style="stop-color:#FF928E"/>
					<stop  offset="1" style="stop-color:#FE7062"/>
				</linearGradient>
				<path fill="url(#SVGID_00000129923936170219429410000002249830547865886345_)" d="M2566.5,1767.6
					c67.8-58.3,186.2-74.8,254.2-79.3c29.8-2,56.7,17.5,64,46.5c20.9,84,78.8,303,90.6,340.8c9.6,31,19.9,61.5,26.5,80.5
					c3.9,11.4-2,23.8-13.4,27.7c-59.1,20.7-163.5,39.9-205.7,47.2c-9.3,1.6-17.5-6.2-16.4-15.5c0.9-7.9-0.4-16-3.7-23.3
					l-125.8-275.6c-108.6,96.2-194.3,96.4-256.6,65.7c14.7-32.5,25.7-65.5,32.9-99C2510.9,1877.6,2566.5,1767.6,2566.5,1767.6z"/>
				
					<linearGradient id="SVGID_00000179603584568508306660000005552722621881948816_" gradientUnits="userSpaceOnUse" x1="-12163.4609" y1="193.5854" x2="-12528.0938" y2="647.2238" gradientTransform="matrix(-0.9937 -0.112 -0.112 0.9937 -9913.165 24.4975)">
					<stop  offset="0" style="stop-color:#FEBBBA"/>
					<stop  offset="1" style="stop-color:#FF928E"/>
				</linearGradient>
				<path fill="url(#SVGID_00000179603584568508306660000005552722621881948816_)" d="M2256.4,1847.4l19.9-21.1
					c51.7,44.8,97.6,59.2,136.7,57c-7.2,33.5-18.2,66.5-32.9,99C2298,1941.8,2256.4,1847.4,2256.4,1847.4z"/>
				
					<linearGradient id="SVGID_00000075144458682637465020000011072229713272932789_" gradientUnits="userSpaceOnUse" x1="-12405.1816" y1="1333.8649" x2="-12769.8379" y2="1787.5314" gradientTransform="matrix(-0.9819 0.1892 0.1892 0.9819 -10399.3926 2724.7598)">
					<stop  offset="0" style="stop-color:#FEBBBA"/>
					<stop  offset="1" style="stop-color:#FF928E"/>
				</linearGradient>
				<path fill="url(#SVGID_00000075144458682637465020000011072229713272932789_)" d="M2282.8,1842.8l-95.7,22.3l-98.3-32.5
					c11.2-10.4,86.4-8,86.4-8s73.1-25.9,93.5-29.9c16.9-3.3,19.2,21.5,19.5,30c0.1,1.7,0,2.8,0,2.8L2282.8,1842.8z"/>
				
					<linearGradient id="SVGID_00000111874303266891087120000005683596045293770626_" gradientUnits="userSpaceOnUse" x1="-12573.6895" y1="-80.5519" x2="-12926.833" y2="568.3148" gradientTransform="matrix(-0.9937 -0.112 -0.112 0.9937 -9913.165 24.4975)">
					<stop  offset="0" style="stop-color:#FEBBBA"/>
					<stop  offset="1" style="stop-color:#FF928E"/>
				</linearGradient>
				<path fill="url(#SVGID_00000111874303266891087120000005683596045293770626_)" d="M2742.6,1558.4l37.3,131.4
					c0,0-63.8,34.3-110.9,25l-13-115.9L2742.6,1558.4z"/>
				<g>
					
						<linearGradient id="SVGID_00000038401293773899118160000017713324336256521642_" gradientUnits="userSpaceOnUse" x1="-9556.2451" y1="-4949.6152" x2="-9712.3193" y2="-4743.1411" gradientTransform="matrix(-0.7472 -0.6646 -0.6646 0.7472 -7742.396 -1168.7673)">
						<stop  offset="0" style="stop-color:#FEBBBA"/>
						<stop  offset="1" style="stop-color:#FF928E"/>
					</linearGradient>
					<path fill="url(#SVGID_00000038401293773899118160000017713324336256521642_)" d="M2665.3,1462.9
						c-1.4,1.5-52.1,127.8-52.1,127.8l72.7,27.4l65.9-112.5C2751.7,1505.7,2688.1,1437.2,2665.3,1462.9z"/>
					
						<linearGradient id="SVGID_00000053526746753946954270000001072504149786413701_" gradientUnits="userSpaceOnUse" x1="-9675.4404" y1="-4899.8086" x2="-9489.0039" y2="-4899.8086" gradientTransform="matrix(-0.7472 -0.6646 -0.6646 0.7472 -7742.396 -1168.7673)">
						<stop  offset="0" style="stop-color:#09005D"/>
						<stop  offset="1" style="stop-color:#1A0F91"/>
					</linearGradient>
					<path fill="url(#SVGID_00000053526746753946954270000001072504149786413701_)" d="M2721.5,1520.5l-30,61.9
						c-0.4,0.8-0.9,1.5-1.4,2.2c-3.6,4-16.9,17-29.4,2.6c-11.3-13.1-21.8-25-32.4-28.1c-4.8-1.4-9.8,1-11.6,5.6
						c-4.6,11.5-14.5,37.5-19.7,61.4c-1,4.9,1.8,9.7,6.6,11.1c14.3,4.4,44.7,12.9,70.8,14c3.5,0.1,6.9-1.6,8.7-4.6
						c8.9-14.8,36.1-59.6,45.6-70.9c8.9-10.6,27.6-8.2,35.3-6.6c2.5,0.5,5.2,0,7.3-1.5c7.5-5.2,22.3-19.1,6-39.6
						c-3.4-4.3-2.6-10.5,1.8-13.7c8.7-6.5,18.6-18.7,7.3-36.5c-11.5-18.1-29.4-17.4-40.7-14.7c-4.5,1.1-9.1-1.3-11-5.5
						c-1.1-2.4-3.3-4.4-7.4-4.5c-5.6-0.1-9.7-5.3-9-10.8c1.4-10.6-0.9-24.4-18.7-32.3c-31.5-13.9-55.5,15.4-60.2,38.8
						c-4.7,23.3,30.4,36.4,51.8,37.2c16.3,0.6,26.4,17.9,30.4,26.2C2722.8,1514.8,2722.8,1517.9,2721.5,1520.5z"/>
					
						<linearGradient id="SVGID_00000129201710745605636680000013541435920552352392_" gradientUnits="userSpaceOnUse" x1="-9784.833" y1="-4786.1055" x2="-9659.6484" y2="-4914.542" gradientTransform="matrix(-0.7472 -0.6646 -0.6646 0.7472 -7742.396 -1168.7673)">
						<stop  offset="0" style="stop-color:#FEBBBA"/>
						<stop  offset="1" style="stop-color:#FF928E"/>
					</linearGradient>
					<path fill="url(#SVGID_00000129201710745605636680000013541435920552352392_)" d="M2717.3,1598.2c0,0,9.9-40.3,27.1-40.4
						c17.2-0.1,32.2,15.8,12.7,36.8C2732.9,1620.8,2717.3,1598.2,2717.3,1598.2z"/>
				</g>
			</g>
		</g>
		<g>
			<path fill="#FFFFFF" d="M1622.3,1744.6l-7.7,6.6l-0.1,0.1c-4.7,4-11.8,3.5-15.8-1.2c-4-4.6-3.5-11.6,1.1-15.7l7.9-7
				c4.7-4.1,11.8-3.7,15.9,0.9c4.1,4.7,3.7,11.8-0.9,15.9c0,0-0.1,0.1-0.1,0.1L1622.3,1744.6z"/>
			<path fill="#FFFFFF" d="M1596.8,1767.2l-7.4,7l-0.1,0.1c-4.4,4.1-11.3,3.9-15.4-0.4c-4.1-4.3-3.9-11.1,0.3-15.3l7.5-7.3
				c4.3-4.2,11.3-4.2,15.6,0.2c4.2,4.3,4.2,11.3-0.2,15.6c0,0-0.1,0.1-0.1,0.1L1596.8,1767.2z"/>
			<path fill="#FFFFFF" d="M1572.3,1790.9l-7.2,7.3l-0.1,0.1c-4.1,4.2-10.8,4.2-15,0.1c-4.1-4.1-4.2-10.7-0.3-14.9l7.2-7.6
				c4.1-4.3,10.8-4.5,15.1-0.4c4.3,4.1,4.5,10.8,0.4,15.1c0,0-0.1,0.1-0.1,0.1L1572.3,1790.9z"/>
			<path fill="#FFFFFF" d="M1548.6,1815.7l-7,7.6l-0.1,0.1c-3.9,4.2-10.4,4.5-14.6,0.6c-4.2-3.8-4.5-10.3-0.7-14.5l7-7.8
				c3.8-4.3,10.4-4.7,14.7-0.9c4.3,3.8,4.7,10.4,0.9,14.7c0,0-0.1,0.1-0.1,0.1L1548.6,1815.7z"/>
			<path fill="#FFFFFF" d="M1525.7,1841.1l-6.7,7.8l-0.1,0.1c-3.6,4.2-10,4.6-14.1,1c-4.1-3.6-4.6-9.8-1.1-14l6.7-8
				c3.6-4.3,10-4.8,14.3-1.2c4.3,3.6,4.8,10,1.2,14.3c0,0-0.1,0.1-0.1,0.1L1525.7,1841.1z"/>
			<path fill="#FFFFFF" d="M1503.4,1867.3l-6.6,8l0,0.1c-3.4,4.2-9.6,4.7-13.7,1.3c-4.1-3.4-4.7-9.4-1.4-13.6l6.5-8.2
				c3.4-4.2,9.6-4.9,13.8-1.6c4.2,3.4,4.9,9.6,1.6,13.8C1503.5,1867.1,1503.5,1867.1,1503.4,1867.3L1503.4,1867.3z"/>
			<path fill="#FFFFFF" d="M1481.8,1894l-6.4,8.1l0,0.1c-3.2,4.1-9.2,4.8-13.3,1.6c-4.1-3.2-4.8-9-1.7-13.1l6.3-8.3
				c3.2-4.2,9.2-5,13.4-1.8c4.2,3.2,5,9.2,1.8,13.4C1481.9,1893.8,1481.9,1893.8,1481.8,1894L1481.8,1894z"/>
			<path fill="#FFFFFF" d="M1460.7,1921.2l-6.2,8.2l0,0c-3,4-8.8,4.9-12.8,1.8c-4-3-4.8-8.7-1.9-12.7l6.1-8.4c3-4.1,8.8-5,12.9-2.1
				c4.1,3,5,8.8,2.1,12.9C1460.8,1921,1460.8,1921,1460.7,1921.2L1460.7,1921.2z"/>
			<path fill="#FFFFFF" d="M1440.3,1948.8l-6,8.4l0,0c-2.9,4-8.4,4.9-12.4,2c-3.9-2.8-4.8-8.3-2.1-12.2l6-8.6
				c2.8-4.1,8.4-5.1,12.4-2.2c4.1,2.8,5.1,8.4,2.2,12.4C1440.4,1948.7,1440.3,1948.7,1440.3,1948.8L1440.3,1948.8z"/>
			<path fill="#FFFFFF" d="M1420.3,1976.9l-5.9,8.5l0,0c-2.7,3.9-8,4.9-11.9,2.2c-3.8-2.7-4.8-7.9-2.3-11.8l5.8-8.7
				c2.6-4,8-5.1,12-2.4c4,2.6,5.1,8,2.4,12C1420.4,1976.7,1420.4,1976.8,1420.3,1976.9L1420.3,1976.9z"/>
			<path fill="#FFFFFF" d="M1401,2005.3l-5.7,8.6l0,0c-2.5,3.8-7.7,4.9-11.5,2.3c-3.8-2.5-4.8-7.5-2.4-11.3l5.6-8.8
				c2.5-3.9,7.7-5,11.5-2.5s5,7.6,2.5,11.5C1401.1,2005.2,1401,2005.2,1401,2005.3L1401,2005.3z"/>
			<path fill="#FFFFFF" d="M1382.2,2034.2l-5.5,8.7l0,0c-2.4,3.7-7.3,4.8-11,2.5c-3.7-2.3-4.8-7.2-2.5-10.9l5.4-8.9
				c2.3-3.8,7.3-5,11.1-2.7c3.8,2.3,5,7.3,2.7,11.1C1382.2,2034,1382.2,2034.1,1382.2,2034.2L1382.2,2034.2z"/>
			<path fill="#FFFFFF" d="M1363.9,2063.4l-5.4,8.8l0,0c-2.2,3.6-6.9,4.8-10.6,2.6c-3.6-2.2-4.8-6.8-2.6-10.4l5.3-9
				c2.2-3.7,6.9-5,10.6-2.8c3.7,2.2,5,6.9,2.8,10.6C1364,2063.2,1364,2063.3,1363.9,2063.4L1363.9,2063.4z"/>
			<path fill="#FFFFFF" d="M1346.2,2092.9l-5.2,8.9l0,0c-2,3.5-6.6,4.7-10.1,2.7c-3.5-2-4.7-6.5-2.7-10l5.1-9.1
				c2-3.6,6.6-4.9,10.2-2.9c3.6,2,4.9,6.6,2.9,10.2C1346.3,2092.8,1346.3,2092.8,1346.2,2092.9L1346.2,2092.9z"/>
			<path fill="#FFFFFF" d="M1329.1,2122.9l-5,9l0,0c-1.9,3.4-6.2,4.7-9.6,2.8c-3.4-1.9-4.6-6.1-2.8-9.5l4.9-9.2
				c1.9-3.5,6.2-4.8,9.7-3c3.5,1.9,4.8,6.2,3,9.7C1329.2,2122.7,1329.2,2122.8,1329.1,2122.9L1329.1,2122.9z"/>
			<path fill="#FFFFFF" d="M1312.7,2153.1l-4.8,9.2l0,0c-1.7,3.3-5.9,4.6-9.2,2.9c-3.3-1.7-4.6-5.8-2.9-9.1l4.7-9.3
				c1.7-3.4,5.9-4.8,9.3-3.1c3.4,1.7,4.8,5.9,3.1,9.3C1312.8,2153,1312.8,2153,1312.7,2153.1L1312.7,2153.1z"/>
			<path fill="#FFFFFF" d="M1297,2183.8l-4.6,9.3l0,0c-1.6,3.2-5.5,4.5-8.7,3c-3.2-1.6-4.5-5.4-3-8.6l4.5-9.4
				c1.6-3.3,5.5-4.7,8.8-3.1c3.3,1.6,4.7,5.5,3.1,8.8C1297,2183.7,1297,2183.7,1297,2183.8L1297,2183.8z"/>
			<path fill="#FFFFFF" d="M1282,2214.8l-4.3,9.4l0,0c-1.4,3.1-5.1,4.5-8.2,3c-3.1-1.4-4.4-5.1-3.1-8.1l4.2-9.6
				c1.4-3.2,5.1-4.6,8.3-3.2c3.2,1.4,4.6,5.1,3.2,8.3C1282.1,2214.7,1282.1,2214.7,1282,2214.8L1282,2214.8z"/>
			<path fill="#FFFFFF" d="M1267.9,2246.2l-4,9.5l0,0.1c-1.3,3-4.8,4.4-7.8,3.1c-3-1.3-4.4-4.7-3.2-7.7l3.9-9.7
				c1.2-3.1,4.7-4.6,7.8-3.3c3.1,1.2,4.6,4.7,3.3,7.8C1268,2246.1,1268,2246.1,1267.9,2246.2L1267.9,2246.2z"/>
			<path fill="#FFFFFF" d="M1254.9,2278l-3.7,9.6l0,0.1c-1.1,2.9-4.4,4.4-7.3,3.2c-2.9-1.1-4.3-4.3-3.3-7.2l3.6-9.8
				c1.1-3,4.4-4.5,7.3-3.4c3,1.1,4.5,4.4,3.4,7.3C1254.9,2277.9,1254.9,2277.9,1254.9,2278L1254.9,2278z"/>
			<path fill="#FFFFFF" d="M1243,2310.3l-3.3,9.8l0,0.1c-0.9,2.8-4,4.3-6.8,3.4c-2.8-0.9-4.3-3.9-3.4-6.7l3.2-10
				c0.9-2.9,4-4.4,6.8-3.5c2.9,0.9,4.4,4,3.5,6.8C1243.1,2310.2,1243.1,2310.2,1243,2310.3L1243,2310.3z"/>
		</g>
	</g>
</g>
</svg>